{"asset":{"version":"2.0","generator":"babylon.js glTF exporter for Autodesk Maya 2018.6 v20210624.1"},"scene":0,"scenes":[{"nodes":[0]}],"nodes":[{"mesh":0,"name":"Light_Glow"}],"meshes":[{"primitives":[{"attributes":{"POSITION":1,"TANGENT":2,"NORMAL":3,"TEXCOORD_0":4},"indices":0,"material":0}],"name":"Light_Glow"}],"accessors":[{"bufferView":0,"componentType":5123,"count":540,"type":"SCALAR","name":"accessorIndices"},{"bufferView":1,"componentType":5126,"count":208,"max":[1.16861582,1.0171026,-1.32112026],"min":[-1.16861582,0.324237,-2.08165956],"type":"VEC3","name":"accessorPositions"},{"bufferView":2,"componentType":5126,"count":208,"type":"VEC4","name":"accessorTangents"},{"bufferView":1,"byteOffset":2496,"componentType":5126,"count":208,"type":"VEC3","name":"accessorNormals"},{"bufferView":3,"componentType":5126,"count":208,"type":"VEC2","name":"accessorUVs"}],"bufferViews":[{"buffer":0,"byteLength":1080,"name":"bufferViewScalar"},{"buffer":0,"byteOffset":1080,"byteLength":4992,"byteStride":12,"name":"bufferViewFloatVec3"},{"buffer":0,"byteOffset":6072,"byteLength":3328,"byteStride":16,"name":"bufferViewFloatVec4"},{"buffer":0,"byteOffset":9400,"byteLength":1664,"byteStride":8,"name":"bufferViewFloatVec2"}],"buffers":[{"uri":"Light.bin","byteLength":11064}],"materials":[{"pbrMetallicRoughness":{"baseColorFactor":[0.5,0.5,0.5,1.0],"baseColorTexture":{"index":0},"metallicFactor":0.0,"roughnessFactor":0.2581639},"emissiveFactor":[1.0,1.0,1.0],"alphaMode":"BLEND","name":"M_Light_Glow"}],"textures":[{"sampler":0,"source":0,"name":"000255_alpha_Light_B.png"}],"images":[{"uri":"000255_alpha_Light_B.png"}],"samplers":[{"magFilter":9729,"minFilter":9987}]}