<svg xmlns="http://www.w3.org/2000/svg" width="37" height="37" viewBox="0 0 37 37">
  <path id="减去_2" data-name="减去 2" d="M18.5,37A18.5,18.5,0,0,1,5.419,5.419,18.5,18.5,0,0,1,31.581,31.581,18.378,18.378,0,0,1,18.5,37ZM15.962,9a2.11,2.11,0,0,0-1.658.814L9,16.664v9.656a2.1,2.1,0,0,0,2.1,2.1H26.321a2.1,2.1,0,0,0,2.1-2.1V11.1a2.1,2.1,0,0,0-2.1-2.1Zm9.86,11.753h-1.63a1.022,1.022,0,0,1,0-2.045h1.63a1.022,1.022,0,0,1,0,2.045Zm1.409-4.089h-16.4l4.38-5.418a2.087,2.087,0,0,1,1.631-.779h8.289a2.1,2.1,0,0,1,2.1,2.1v4.1Z" fill="#fff" opacity="0.85"/>
</svg>
