<svg xmlns="http://www.w3.org/2000/svg" width="63.953" height="61.564" viewBox="0 0 63.953 61.564">
    <g transform="translate(-2101 -733)" opacity="0.85">
        <path
            d="M15.219,35.312h0L0,26.525.047,8.869,15.314,0,30.533,8.787l-.047,17.656L15.219,35.312Zm-.808-16.537v6.455h2.152V18.775h6.456V16.623H16.563V10.168H14.411v6.456H7.956v2.152Z"
            transform="translate(2118.072 746.055)" fill="#fff" />
        <g transform="translate(2122.339 733) rotate(30)" fill="none">
            <path d="M36.9,0l12.3,21.339L36.9,42.679H12.3L0,21.339,12.3,0Z" stroke="none" />
            <path
                d="M 12.87933349609375 0.9999923706054688 L 1.154262542724609 21.33938407897949 L 12.87932205200195 41.67876434326172 L 36.32678985595703 41.67876434326172 L 48.05183792114258 21.33938407897949 L 36.32678985595703 0.9999923706054688 L 12.87933349609375 0.9999923706054688 M 12.30153656005859 -7.62939453125e-06 L 36.90458679199219 -7.62939453125e-06 L 49.20610427856445 21.33938407897949 L 36.90458679199219 42.67876434326172 L 12.3015251159668 42.67876434326172 L -3.814697265625e-06 21.33938407897949 L 12.30153656005859 -7.62939453125e-06 Z"
                stroke="none" fill="#fff" />
        </g>
    </g>
</svg>