<svg xmlns="http://www.w3.org/2000/svg" width="37" height="37" viewBox="0 0 37 37">
  <path id="减去_3" data-name="减去 3" d="M18.5,37A18.5,18.5,0,0,1,5.419,5.419,18.5,18.5,0,0,1,31.581,31.581,18.378,18.378,0,0,1,18.5,37ZM22.214,9.6a2.614,2.614,0,0,0-1.415.411,2.378,2.378,0,0,0-1.139,1.6,36.489,36.489,0,0,0-.683,7.132,36.485,36.485,0,0,0,.683,7.131,2.329,2.329,0,0,0,1.139,1.6,2.716,2.716,0,0,0,1.411.38,3.23,3.23,0,0,0,.638-.042,9.461,9.461,0,0,0,7.7-9.072,9.478,9.478,0,0,0-7.7-9.073A2.826,2.826,0,0,0,22.214,9.6Zm-11.8,15.391v1.265H17.7V24.989Zm0-4.558V21.7h5.419V20.432Zm0-4.558v1.266h5.419V15.874Zm0-4.6v1.265H17.7V11.275ZM22.238,26.668a1.376,1.376,0,0,1-.711-.2,1.243,1.243,0,0,1-.546-.8,37.442,37.442,0,0,1,0-13.756,1.039,1.039,0,0,1,.546-.8,1.3,1.3,0,0,1,.683-.211.524.524,0,0,1,.319.085,8.737,8.737,0,0,1,4.793,2.848,7.643,7.643,0,0,1,1.856,5,8.181,8.181,0,0,1-6.648,7.807A1.291,1.291,0,0,1,22.238,26.668Z" fill="#fff" opacity="0.85"/>
</svg>
